<svg width="8" height="15" viewBox="0 0 8 15" fill="none" xmlns="http://www.w3.org/2000/svg">
<path d="M0.360006 0.600118C0.200006 0.813451 0.120006 1.02678 0.120006 1.24012C0.120006 1.45345 0.200006 1.66678 0.360006 1.88012L5.80001 7.32012L0.360006 12.6801C0.253339 12.8401 0.200006 13.0401 0.200006 13.2801C0.200006 13.5201 0.266673 13.7201 0.400006 13.8801C0.533339 14.0401 0.733339 14.1201 1.00001 14.1201C1.26667 14.1201 1.45334 14.0401 1.56001 13.8801L7.56 7.88012C7.77334 7.66678 7.88 7.45345 7.88 7.24012C7.88 7.02678 7.77334 6.81345 7.56 6.60012L1.56001 0.600118C1.45334 0.440118 1.26667 0.360118 1.00001 0.360118C0.733339 0.360118 0.520006 0.440118 0.360006 0.600118Z" fill="#5C7C5F"/>
</svg>
