<svg width="8" height="15" viewBox="0 0 8 15" fill="none" xmlns="http://www.w3.org/2000/svg">
<path d="M7.63999 0.600118C7.79999 0.813451 7.87999 1.02678 7.87999 1.24012C7.87999 1.45345 7.79999 1.66678 7.63999 1.88012L2.19999 7.32012L7.63999 12.6801C7.74666 12.8401 7.79999 13.0401 7.79999 13.2801C7.79999 13.5201 7.73333 13.7201 7.59999 13.8801C7.46666 14.0401 7.26666 14.1201 6.99999 14.1201C6.73333 14.1201 6.54666 14.0401 6.43999 13.8801L0.439995 7.88012C0.226662 7.66678 0.119995 7.45345 0.119995 7.24012C0.119995 7.02678 0.226662 6.81345 0.439995 6.60012L6.43999 0.600118C6.54666 0.440118 6.73333 0.360118 6.99999 0.360118C7.26666 0.360118 7.47999 0.440118 7.63999 0.600118Z" fill="#5C7C5F"/>
</svg>
