<svg width="48" height="48" viewBox="0 0 48 48" fill="none" xmlns="http://www.w3.org/2000/svg">
<rect x="47" y="47" width="46" height="46" rx="23" transform="rotate(180 47 47)" stroke="#5C7C5F" stroke-width="2"/>
<path d="M18.72 11.2002C18.4 11.6269 18.24 12.0536 18.24 12.4802C18.24 12.9069 18.4 13.3336 18.72 13.7602L29.6 24.6402L18.72 35.3602C18.5067 35.6802 18.4 36.0802 18.4 36.5602C18.4 37.0402 18.5333 37.4402 18.8 37.7602C19.0667 38.0802 19.4667 38.2402 20 38.2402C20.5333 38.2402 20.9067 38.0802 21.12 37.7602L33.12 25.7602C33.5467 25.3336 33.76 24.9069 33.76 24.4802C33.76 24.0536 33.5467 23.6269 33.12 23.2002L21.12 11.2002C20.9067 10.8802 20.5333 10.7202 20 10.7202C19.4667 10.7202 19.04 10.8802 18.72 11.2002Z" fill="#5C7C5F"/>
</svg>
