<svg width="48" height="48" viewBox="0 0 48 48" fill="none" xmlns="http://www.w3.org/2000/svg">
<rect x="1" y="-1" width="46" height="46" rx="23" transform="matrix(1 0 0 -1 0 46)" stroke="#5C7C5F" stroke-width="2"/>
<path d="M29.28 11.2002C29.6 11.6269 29.76 12.0536 29.76 12.4802C29.76 12.9069 29.6 13.3336 29.28 13.7602L18.4 24.6402L29.28 35.3602C29.4933 35.6802 29.6 36.0802 29.6 36.5602C29.6 37.0402 29.4667 37.4402 29.2 37.7602C28.9333 38.0802 28.5333 38.2402 28 38.2402C27.4667 38.2402 27.0933 38.0802 26.88 37.7602L14.88 25.7602C14.4533 25.3336 14.24 24.9069 14.24 24.4802C14.24 24.0536 14.4533 23.6269 14.88 23.2002L26.88 11.2002C27.0933 10.8802 27.4667 10.7202 28 10.7202C28.5333 10.7202 28.96 10.8802 29.28 11.2002Z" fill="#5C7C5F"/>
</svg>
