<svg width="21" height="20" viewBox="0 0 21 20" fill="none" xmlns="http://www.w3.org/2000/svg">
<path d="M0 16L0.5 14H6L5.5 16H0ZM2 12L2.5 10H9L8.5 12H2ZM17.575 18L18.075 14L18.8 8L19.05 6.025L17.575 18ZM5 20C4.45 20 3.97917 19.8042 3.5875 19.4125C3.19583 19.0208 3 18.55 3 18H17.575L19.05 6.025H16.3L16.025 8.15C15.9917 8.43333 15.8667 8.65417 15.65 8.8125C15.4333 8.97083 15.1833 9.03333 14.9 9C14.6167 8.96667 14.3958 8.84583 14.2375 8.6375C14.0792 8.42917 14.0167 8.18333 14.05 7.9L14.275 6.025H10.3L10.025 8.125C9.99167 8.40833 9.86667 8.63333 9.65 8.8C9.43333 8.96667 9.18333 9.03333 8.9 9C8.61667 8.96667 8.39167 8.84167 8.225 8.625C8.05833 8.40833 7.99167 8.15833 8.025 7.875L8.25 6.025H4.5C4.56667 5.45833 4.78333 4.97917 5.15 4.5875C5.51667 4.19583 5.96667 4 6.5 4H8.5C8.63333 2.75 9.0625 1.77083 9.7875 1.0625C10.5125 0.354167 11.5 0 12.75 0C13.8167 0 14.7042 0.395833 15.4125 1.1875C16.1208 1.97917 16.4667 2.91667 16.45 4H19C19.6 4.01667 20.1 4.25 20.5 4.7C20.9 5.15 21.0583 5.675 20.975 6.275L19.475 18.275C19.4083 18.775 19.1875 19.1875 18.8125 19.5125C18.4375 19.8375 18 20 17.5 20H5ZM10.5 4H14.475C14.4917 3.45 14.3042 2.97917 13.9125 2.5875C13.5208 2.19583 13.05 2 12.5 2C11.9167 2 11.4542 2.17917 11.1125 2.5375C10.7708 2.89583 10.5667 3.38333 10.5 4Z" fill="#5C7C5F"/>
</svg>
